<svg width="1920" height="1080" viewBox="0 0 1920 1080" fill="none" xmlns="http://www.w3.org/2000/svg">
<g opacity="0.08">
<path d="M1328.3 703.365L1331.03 691.529C1331.65 688.75 1330.55 684.869 1328.54 682.856L1316.66 670.973C1309.66 663.977 1311.91 656.885 1321.69 655.256L1336.97 652.717C1339.51 652.285 1342.58 650.033 1343.73 647.685L1352.16 630.819C1356.71 621.667 1364.19 621.667 1368.79 630.819L1377.22 647.685C1377.75 648.787 1378.76 649.842 1379.86 650.752M1399.31 655.256C1409.09 656.885 1411.39 663.977 1404.34 670.973L1392.46 682.856C1390.45 684.869 1389.35 688.75 1389.97 691.529L1393.37 706.24C1396.05 717.883 1389.87 722.388 1379.57 716.302L1365.24 707.821C1362.66 706.288 1358.39 706.288 1355.76 707.821L1341.43 716.302M1408.42 623.583L1312.58 719.417" stroke="#5E5E5E" stroke-width="6" stroke-linecap="round" stroke-linejoin="round"/>
</g>
<g opacity="0.1">
<path d="M540.333 640.333H512.333M526.333 705.667H512.333M517 673H512.333M574.82 641.313L581.4 654.473C582.287 656.293 584.667 658.02 586.673 658.393L598.573 660.353C606.18 661.613 607.953 667.12 602.493 672.627L593.207 681.913C591.667 683.453 590.78 686.487 591.293 688.68L593.953 700.16C596.053 709.213 591.2 712.76 583.22 708L572.067 701.373C570.06 700.16 566.7 700.16 564.693 701.373L553.54 708C545.56 712.713 540.707 709.213 542.807 700.16L545.467 688.68C545.98 686.533 545.093 683.5 543.553 681.913L534.267 672.627C528.807 667.167 530.58 661.66 538.187 660.353L550.087 658.393C552.093 658.067 554.473 656.293 555.36 654.473L561.94 641.313C565.44 634.173 571.227 634.173 574.82 641.313V641.313Z" stroke="#5E5E5E" stroke-width="6" stroke-linecap="round" stroke-linejoin="round"/>
</g>
<g opacity="0.25">
<path d="M1578.71 245.667L1591.33 233.042M1597.96 171.25L1598.25 187.042C1598.29 189.208 1596.92 192.083 1595.17 193.375L1584.83 201.208C1578.21 206.208 1579.29 212.333 1587.21 214.833L1600.67 219.042C1602.92 219.75 1605.29 222.208 1605.88 224.5L1609.08 236.75C1611.63 246.417 1617.96 247.375 1623.21 238.875L1630.54 227C1631.88 224.833 1635.04 223.208 1637.54 223.333L1651.46 224.042C1661.42 224.542 1664.25 218.792 1657.75 211.208L1649.5 201.625C1647.96 199.833 1647.25 196.5 1647.96 194.25L1652.17 180.792C1654.63 172.875 1650.21 168.5 1642.33 171.083L1630.04 175.125C1627.96 175.792 1624.83 175.333 1623.08 174.042L1610.25 164.792C1603.33 159.792 1597.79 162.708 1597.96 171.25Z" stroke="#5E5E5E" stroke-width="4" stroke-linecap="round" stroke-linejoin="round"/>
</g>
<g opacity="0.15" clip-path="url(#clip0_106_41)">
<path d="M976.009 97.7631L976.436 113.424C976.478 115.595 977.996 118.368 979.793 119.601L990.41 126.88C997.198 131.539 996.44 137.686 988.68 140.48L975.56 145.255C973.338 146.064 971.146 148.599 970.639 150.911L968.035 163.181C965.968 172.89 959.732 174.112 954.112 165.912L946.302 154.496C944.892 152.433 941.681 150.936 939.159 151.165L925.393 152.52C915.536 153.502 912.444 147.887 918.536 140.098L926.263 130.217C927.707 128.343 928.24 125.034 927.432 122.812L922.657 109.692C919.845 101.968 924.031 97.4194 931.963 99.6249L944.364 103.08C946.427 103.647 949.527 103.028 951.217 101.664L963.489 91.9251C970.166 86.6493 975.795 89.2739 976.009 97.7631V97.7631Z" stroke="#5C5C5C" stroke-width="6" stroke-linecap="round" stroke-linejoin="round"/>
</g>
<g opacity="0.3">
<path d="M290.988 225.333L279.373 213.718M273.278 156.87L273.01 171.398C272.972 173.392 274.237 176.037 275.847 177.225L285.353 184.432C291.448 189.032 290.452 194.667 283.168 196.967L270.787 200.838C268.717 201.49 266.532 203.752 265.995 205.86L263.043 217.13C260.705 226.023 254.878 226.905 250.048 219.085L243.302 208.16C242.075 206.167 239.162 204.672 236.862 204.787L224.058 205.438C214.897 205.898 212.29 200.608 218.27 193.632L225.86 184.815C227.278 183.167 227.93 180.1 227.278 178.03L223.407 165.648C221.145 158.365 225.208 154.34 232.453 156.717L243.762 160.435C245.678 161.048 248.553 160.627 250.163 159.438L261.97 150.928C268.333 146.328 273.432 149.012 273.278 156.87Z" stroke="#5E5E5E" stroke-width="4" stroke-linecap="round" stroke-linejoin="round"/>
</g>
<defs>
<clipPath id="clip0_106_41">
<rect width="95.54" height="95.54" fill="white" transform="translate(932.378 62) rotate(25.0007)"/>
</clipPath>
</defs>
</svg>
